<mxfile>
    <diagram id="atYmXtPYCr8DxYAoy277" name="Page-1">
        <mxGraphModel dx="645" dy="864" grid="1" gridSize="10" guides="1" tooltips="1" connect="1" arrows="1" fold="1" page="1" pageScale="1" pageWidth="1169" pageHeight="827" math="0" shadow="0">
            <root>
                <mxCell id="0"/>
                <mxCell id="1" parent="0"/>
                <mxCell id="111" value="&lt;b&gt;&lt;font style=&quot;font-size: 16px&quot;&gt;Input&lt;br&gt;&lt;/font&gt;&lt;/b&gt;" style="shape=ext;double=1;rounded=0;whiteSpace=wrap;html=1;verticalAlign=top;" parent="1" vertex="1">
                    <mxGeometry x="10" y="60" width="190" height="670" as="geometry"/>
                </mxCell>
                <mxCell id="110" value="&lt;b&gt;&lt;font style=&quot;font-size: 16px&quot;&gt;Detection&amp;nbsp;Methods&lt;/font&gt;&lt;/b&gt;" style="shape=ext;double=1;rounded=0;whiteSpace=wrap;html=1;verticalAlign=top;" parent="1" vertex="1">
                    <mxGeometry x="220" y="60" width="370" height="670" as="geometry"/>
                </mxCell>
                <mxCell id="109" value="&lt;b&gt;&lt;font style=&quot;font-size: 16px&quot;&gt;Refinement Methods&lt;/font&gt;&lt;/b&gt;" style="shape=ext;double=1;rounded=0;whiteSpace=wrap;html=1;verticalAlign=top;" parent="1" vertex="1">
                    <mxGeometry x="830" y="60" width="160" height="670" as="geometry"/>
                </mxCell>
                <mxCell id="107" value="&lt;b&gt;&lt;font style=&quot;font-size: 16px&quot;&gt;Clustering Methods&lt;/font&gt;&lt;/b&gt;" style="shape=ext;double=1;rounded=0;whiteSpace=wrap;html=1;verticalAlign=top;" parent="1" vertex="1">
                    <mxGeometry x="610" y="60" width="190" height="670" as="geometry"/>
                </mxCell>
                <mxCell id="20" value="VCF&lt;br&gt;&lt;br&gt;Deletions&lt;br&gt;Insertions&lt;br&gt;&lt;font color=&quot;#8f8f8f&quot;&gt;Inversions&lt;br&gt;Duplications&lt;br&gt;Translocations&lt;br&gt;&lt;br&gt;SNPs&lt;br&gt;Indels&lt;br&gt;&lt;br&gt;nested SVs&lt;br&gt;&lt;/font&gt;" style="shape=note;whiteSpace=wrap;html=1;backgroundOutline=1;darkOpacity=0.05;fontSize=14;fillColor=#008a00;strokeColor=#005700;fontColor=#ffffff;" parent="1" vertex="1">
                    <mxGeometry x="1010" y="288" width="150" height="224" as="geometry"/>
                </mxCell>
                <mxCell id="44" value="sViper" style="shape=step;perimeter=stepPerimeter;whiteSpace=wrap;html=1;fixedSize=1;labelBackgroundColor=none;fontSize=14;" parent="1" vertex="1">
                    <mxGeometry x="850" y="280" width="120" height="110" as="geometry"/>
                </mxCell>
                <mxCell id="52" value="Consensus computation&lt;br&gt;and&lt;br&gt;realignment (SVIRL)" style="shape=step;perimeter=stepPerimeter;whiteSpace=wrap;html=1;fixedSize=1;labelBackgroundColor=none;fontSize=14;" parent="1" vertex="1">
                    <mxGeometry x="850" y="440" width="120" height="110" as="geometry"/>
                </mxCell>
                <mxCell id="36" value="Vaquita:&lt;br&gt;read pair&lt;br&gt;evidence" style="triangle;whiteSpace=wrap;html=1;fontSize=14;spacingLeft=5;align=left;" parent="1" vertex="1">
                    <mxGeometry x="240" y="419.99756756756716" width="130" height="130" as="geometry"/>
                </mxCell>
                <mxCell id="37" value="Vaquita: &lt;br&gt;split read &lt;br&gt;evidence" style="triangle;whiteSpace=wrap;html=1;fontSize=14;spacingLeft=5;align=left;dashed=1;" parent="1" vertex="1">
                    <mxGeometry x="240" y="260.0032432432438" width="130" height="130" as="geometry"/>
                </mxCell>
                <mxCell id="74" value="" style="group;" parent="1" vertex="1" connectable="0">
                    <mxGeometry x="630" y="270" width="150" height="440" as="geometry"/>
                </mxCell>
                <mxCell id="39" value="hierarchical clustering&lt;br style=&quot;font-size: 14px;&quot;&gt;(SVIM)" style="shape=hexagon;perimeter=hexagonPerimeter2;whiteSpace=wrap;html=1;fixedSize=1;labelBackgroundColor=none;fontSize=14;fillColor=#008a00;strokeColor=#005700;fontColor=#ffffff;" parent="74" vertex="1">
                    <mxGeometry y="100" width="150" height="88" as="geometry"/>
                </mxCell>
                <mxCell id="40" value="self-balancing binary tree&lt;br style=&quot;font-size: 14px;&quot;&gt;(Sniffles)" style="shape=hexagon;perimeter=hexagonPerimeter2;whiteSpace=wrap;html=1;fixedSize=1;labelBackgroundColor=none;fontSize=14;" parent="74" vertex="1">
                    <mxGeometry y="230" width="150" height="88" as="geometry"/>
                </mxCell>
                <mxCell id="41" value="candidate selection based on voting&lt;br&gt;(Vaquita)" style="shape=hexagon;perimeter=hexagonPerimeter2;whiteSpace=wrap;html=1;fixedSize=1;labelBackgroundColor=none;fontSize=14;" parent="74" vertex="1">
                    <mxGeometry y="353.1513333333334" width="150" height="86.84866666666667" as="geometry"/>
                </mxCell>
                <mxCell id="35" value="Vaquita:&lt;br&gt;read depth&lt;br style=&quot;font-size: 14px&quot;&gt;evidence&lt;br&gt;(Kullback-Leibler divergence)" style="triangle;whiteSpace=wrap;html=1;fontSize=14;labelPosition=center;verticalLabelPosition=middle;align=left;verticalAlign=middle;spacing=2;spacingLeft=0;" parent="1" vertex="1">
                    <mxGeometry x="240" y="580.0037837837835" width="130" height="130" as="geometry"/>
                </mxCell>
                <mxCell id="90" value="" style="group" parent="1" vertex="1" connectable="0">
                    <mxGeometry x="40" y="260" width="80" height="520" as="geometry"/>
                </mxCell>
                <mxCell id="16" value="Short Reads indexed BAM" style="shape=cylinder2;whiteSpace=wrap;html=1;boundedLbl=1;backgroundOutline=1;size=15;labelBackgroundColor=none;fontSize=14;fillColor=#008a00;strokeColor=#005700;fontColor=#ffffff;" parent="90" vertex="1">
                    <mxGeometry width="80" height="120" as="geometry"/>
                </mxCell>
                <mxCell id="17" value="Long Reads indexed BAM" style="shape=cylinder2;whiteSpace=wrap;html=1;boundedLbl=1;backgroundOutline=1;size=15;labelBackgroundColor=none;fontSize=14;fillColor=#008a00;strokeColor=#005700;fontColor=#ffffff;" parent="90" vertex="1">
                    <mxGeometry y="200.01" width="80" height="120" as="geometry"/>
                </mxCell>
                <mxCell id="92" value="" style="group;whiteSpace=wrap;html=1;" parent="1" vertex="1" connectable="0">
                    <mxGeometry x="210" y="68.24" width="260" height="191.76" as="geometry"/>
                </mxCell>
                <mxCell id="122" value="Vaquita:&amp;nbsp;&lt;br&gt;CIGAR string" style="triangle;whiteSpace=wrap;html=1;fontSize=14;spacingLeft=5;align=left;dashed=1;" parent="92" vertex="1">
                    <mxGeometry x="30" y="31.763243243243792" width="130" height="130" as="geometry"/>
                </mxCell>
                <mxCell id="113" value="SVIM: &lt;br&gt;split read &lt;br&gt;evidence" style="triangle;whiteSpace=wrap;html=1;fontSize=14;spacingLeft=5;align=left;fillColor=#008a00;strokeColor=#005700;fontColor=#ffffff;" parent="1" vertex="1">
                    <mxGeometry x="400" y="260.0032432432438" width="130" height="130" as="geometry"/>
                </mxCell>
                <mxCell id="114" value="&lt;font style=&quot;font-size: 14px&quot;&gt;SVIM:&lt;br&gt;CIGAR string&lt;/font&gt;" style="triangle;whiteSpace=wrap;html=1;fontSize=14;spacingLeft=0;align=left;fillColor=#008a00;strokeColor=#005700;fontColor=#ffffff;" parent="1" vertex="1">
                    <mxGeometry x="400" y="98.24" width="123.80952380952381" height="131.76" as="geometry"/>
                </mxCell>
                <mxCell id="115" value="Maybe move this Method behind the clustering" style="shape=callout;whiteSpace=wrap;html=1;perimeter=calloutPerimeter;dashed=1;" parent="1" vertex="1">
                    <mxGeometry x="310" y="540" width="97.5" height="90" as="geometry"/>
                </mxCell>
                <mxCell id="116" value="simple clustering" style="shape=hexagon;perimeter=hexagonPerimeter2;whiteSpace=wrap;html=1;fixedSize=1;labelBackgroundColor=none;fontSize=14;fillColor=#008a00;strokeColor=#005700;fontColor=#ffffff;" parent="1" vertex="1">
                    <mxGeometry x="630" y="120.11999999999999" width="150" height="88" as="geometry"/>
                </mxCell>
                <mxCell id="117" value="GATK:&lt;br&gt;detect SNPs" style="triangle;whiteSpace=wrap;html=1;fontSize=14;spacingLeft=5;align=left;dashed=1;" parent="1" vertex="1">
                    <mxGeometry x="440" y="580.0032432432438" width="130" height="130" as="geometry"/>
                </mxCell>
                <mxCell id="118" value="" style="shape=flexArrow;endArrow=classic;html=1;fillColor=#6a00ff;strokeColor=#3700CC;" parent="1" edge="1">
                    <mxGeometry width="50" height="50" relative="1" as="geometry">
                        <mxPoint x="180" y="414" as="sourcePoint"/>
                        <mxPoint x="230" y="413" as="targetPoint"/>
                    </mxGeometry>
                </mxCell>
                <mxCell id="119" value="" style="shape=flexArrow;endArrow=classic;html=1;fillColor=#6a00ff;strokeColor=#3700CC;" parent="1" edge="1">
                    <mxGeometry width="50" height="50" relative="1" as="geometry">
                        <mxPoint x="570" y="414" as="sourcePoint"/>
                        <mxPoint x="620" y="413" as="targetPoint"/>
                    </mxGeometry>
                </mxCell>
                <mxCell id="120" value="" style="shape=flexArrow;endArrow=classic;html=1;fillColor=#6a00ff;strokeColor=#3700CC;" parent="1" edge="1">
                    <mxGeometry width="50" height="50" relative="1" as="geometry">
                        <mxPoint x="790" y="414" as="sourcePoint"/>
                        <mxPoint x="840" y="413" as="targetPoint"/>
                    </mxGeometry>
                </mxCell>
                <mxCell id="121" value="" style="shape=flexArrow;endArrow=classic;html=1;fillColor=#6a00ff;strokeColor=#3700CC;" parent="1" edge="1">
                    <mxGeometry width="50" height="50" relative="1" as="geometry">
                        <mxPoint x="970" y="414" as="sourcePoint"/>
                        <mxPoint x="1020" y="413" as="targetPoint"/>
                    </mxGeometry>
                </mxCell>
                <mxCell id="123" value="Vertex cover in conflict graph (SVIRL)" style="shape=hexagon;perimeter=hexagonPerimeter2;whiteSpace=wrap;html=1;fixedSize=1;labelBackgroundColor=none;fontSize=14;" parent="1" vertex="1">
                    <mxGeometry x="630" y="240" width="150" height="88" as="geometry"/>
                </mxCell>
            </root>
        </mxGraphModel>
    </diagram>
</mxfile>
